<svg xmlns="http://www.w3.org/2000/svg" width="64" height="64" viewBox="0 0 64 64" fill="none">
  <defs>
    <linearGradient id="rind" x1="14" y1="14" x2="50" y2="52" gradientUnits="userSpaceOnUse">
      <stop stop-color="#FFF07A"/>
      <stop offset=".55" stop-color="#FDE047"/>
      <stop offset="1" stop-color="#E4A304"/>
    </linearGradient>
    <linearGradient id="leaf" x1="34" y1="6" x2="54" y2="20" gradientUnits="userSpaceOnUse">
      <stop stop-color="#5BD47B"/>
      <stop offset="1" stop-color="#1E8E45"/>
    </linearGradient>
  </defs>

  <!-- leaf + stem -->
  <path d="M35 13c5.4-6.6 12.6-8.4 17.6-6.4-1.4 5.8-7 11-14 11.6-2.2.2-3.3-2-3.6-5.2Z" fill="url(#leaf)"/>
  <path d="M33 15c-.6-3.4.4-6.4 2.6-8.8" stroke="#1E8E45" stroke-width="2.6" stroke-linecap="round"/>

  <!-- lemon body, tilted -->
  <g transform="rotate(-22 32 36)">
    <ellipse cx="32" cy="36" rx="21" ry="16" fill="url(#rind)"/>
    <ellipse cx="10.6" cy="36" rx="3.4" ry="2.6" fill="url(#rind)"/>
    <ellipse cx="53.4" cy="36" rx="3.4" ry="2.6" fill="url(#rind)"/>
    <ellipse cx="24" cy="28.5" rx="7.5" ry="3.6" fill="#FFFBE0" opacity=".65" transform="rotate(-12 24 28.5)"/>
  </g>
</svg>
